<svg xmlns="http://www.w3.org/2000/svg" width="2200" height="1350" viewBox="0 0 2200 1350">
<defs>
<marker id="arrow" markerWidth="12" markerHeight="12" refX="10" refY="6" orient="auto">
<path d="M2,2 L10,6 L2,10 Z" fill="#111827"/>
</marker>
<filter id="shadow" x="-20%" y="-20%" width="140%" height="140%">
<feDropShadow dx="0" dy="5" stdDeviation="5" flood-color="#0f172a" flood-opacity="0.12"/>
</filter>
</defs>
<rect width="2200" height="1350" fill="#ffffff"/>
<text x="1100" y="58" font-family="Helvetica, Arial, sans-serif" font-size="36" font-weight="800" text-anchor="middle" fill="#111827">tencent_advertising_gr: Generative Sequential Recommendation Architecture</text>
<text x="1100" y="94" font-family="Helvetica, Arial, sans-serif" font-size="22" font-weight="500" text-anchor="middle" fill="#475569">HSTU-based action-conditioned next-item retrieval with mixed negative sampled softmax</text>
<rect x="40" y="140" width="430" height="1030" rx="18" fill="#f8fafc" stroke="#94a3b8" stroke-width="2.4" stroke-dasharray="8 7"/><text x="62" y="178" font-family="Helvetica, Arial, sans-serif" font-size="26" font-weight="700" text-anchor="start" fill="#0f172a">1. Data &amp; Sampling</text>
<rect x="520" y="140" width="455" height="1030" rx="18" fill="#f8fafc" stroke="#94a3b8" stroke-width="2.4" stroke-dasharray="8 7"/><text x="542" y="178" font-family="Helvetica, Arial, sans-serif" font-size="26" font-weight="700" text-anchor="start" fill="#0f172a">2. Feature Encoding</text>
<rect x="1025" y="140" width="565" height="1030" rx="18" fill="#f8fafc" stroke="#94a3b8" stroke-width="2.4" stroke-dasharray="8 7"/><text x="1047" y="178" font-family="Helvetica, Arial, sans-serif" font-size="26" font-weight="700" text-anchor="start" fill="#0f172a">3. HSTU Sequence Model</text>
<rect x="1640" y="140" width="500" height="500" rx="18" fill="#f8fafc" stroke="#94a3b8" stroke-width="2.4" stroke-dasharray="8 7"/><text x="1662" y="178" font-family="Helvetica, Arial, sans-serif" font-size="26" font-weight="700" text-anchor="start" fill="#0f172a">4. Training Objective</text>
<rect x="1640" y="700" width="500" height="470" rx="18" fill="#f8fafc" stroke="#94a3b8" stroke-width="2.4" stroke-dasharray="8 7"/><text x="1662" y="738" font-family="Helvetica, Arial, sans-serif" font-size="26" font-weight="700" text-anchor="start" fill="#0f172a">5. Inference Retrieval</text>
<rect x="80" y="205" width="350" height="130" rx="10" fill="#f8fafc" stroke="#111827" stroke-width="2.2"/><text x="255.0" y="239" font-family="Helvetica, Arial, sans-serif" font-size="25" font-weight="700" text-anchor="middle" fill="#111827"><tspan x="255.0" dy="0">Raw Logs</tspan></text><text x="255.0" y="279" font-family="Helvetica, Arial, sans-serif" font-size="19" font-weight="400" text-anchor="middle" fill="#374151"><tspan x="255.0" dy="0">seq.jsonl: user, item, features</tspan><tspan x="255.0" dy="24.32">action type, timestamp</tspan></text>
<rect x="80" y="370" width="350" height="130" rx="10" fill="#f8fafc" stroke="#111827" stroke-width="2.2"/><text x="255.0" y="404" font-family="Helvetica, Arial, sans-serif" font-size="25" font-weight="700" text-anchor="middle" fill="#111827"><tspan x="255.0" dy="0">Metadata</tspan></text><text x="255.0" y="444" font-family="Helvetica, Arial, sans-serif" font-size="19" font-weight="400" text-anchor="middle" fill="#374151"><tspan x="255.0" dy="0">indexer.pkl, item_feat_dict</tspan><tspan x="255.0" dy="24.32">optional creative_emb memmap</tspan></text>
<rect x="80" y="535" width="350" height="130" rx="10" fill="#f8fafc" stroke="#111827" stroke-width="2.2"/><text x="255.0" y="569" font-family="Helvetica, Arial, sans-serif" font-size="25" font-weight="700" text-anchor="middle" fill="#111827"><tspan x="255.0" dy="0">Statistics</tspan></text><text x="255.0" y="609" font-family="Helvetica, Arial, sans-serif" font-size="19" font-weight="400" text-anchor="middle" fill="#374151"><tspan x="255.0" dy="0">get_stat.py</tspan><tspan x="255.0" dy="24.32">item_freq.csv, item_last_ts.json</tspan></text>
<rect x="80" y="715" width="350" height="150" rx="10" fill="#eef2ff" stroke="#4338ca" stroke-width="2.2"/><text x="255.0" y="749" font-family="Helvetica, Arial, sans-serif" font-size="25" font-weight="700" text-anchor="middle" fill="#111827"><tspan x="255.0" dy="0">Dataset Collate</tspan></text><text x="255.0" y="789" font-family="Helvetica, Arial, sans-serif" font-size="19" font-weight="400" text-anchor="middle" fill="#374151"><tspan x="255.0" dy="0">left-padded sequences</tspan><tspan x="255.0" dy="24.32">token_type: item=1, user=2</tspan><tspan x="255.0" dy="24.32">packed feature tensors</tspan></text>
<rect x="80" y="920" width="350" height="150" rx="10" fill="#eef2ff" stroke="#4338ca" stroke-width="2.2"/><text x="255.0" y="954" font-family="Helvetica, Arial, sans-serif" font-size="25" font-weight="700" text-anchor="middle" fill="#111827"><tspan x="255.0" dy="0">Targets &amp; Negatives</tspan></text><text x="255.0" y="994" font-family="Helvetica, Arial, sans-serif" font-size="19" font-weight="400" text-anchor="middle" fill="#374151"><tspan x="255.0" dy="0">positive next item</tspan><tspan x="255.0" dy="24.32">global active negatives</tspan><tspan x="255.0" dy="24.32">exclude user-seen items</tspan></text>
<rect x="560" y="230" width="375" height="130" rx="10" fill="#f0fdf4" stroke="#15803d" stroke-width="2.2"/><text x="747.5" y="264" font-family="Helvetica, Arial, sans-serif" font-size="25" font-weight="700" text-anchor="middle" fill="#111827"><tspan x="747.5" dy="0">User Tower</tspan></text><text x="747.5" y="304" font-family="Helvetica, Arial, sans-serif" font-size="19" font-weight="400" text-anchor="middle" fill="#374151"><tspan x="747.5" dy="0">user_id embedding</tspan><tspan x="747.5" dy="24.32">user sparse / array features</tspan></text>
<rect x="560" y="430" width="375" height="160" rx="10" fill="#f0fdf4" stroke="#15803d" stroke-width="2.2"/><text x="747.5" y="464" font-family="Helvetica, Arial, sans-serif" font-size="25" font-weight="700" text-anchor="middle" fill="#111827"><tspan x="747.5" dy="0">Item Tower</tspan></text><text x="747.5" y="504" font-family="Helvetica, Arial, sans-serif" font-size="19" font-weight="400" text-anchor="middle" fill="#374151"><tspan x="747.5" dy="0">item_id + sparse / array</tspan><tspan x="747.5" dy="24.32">continuous + dense multimodal</tspan><tspan x="747.5" dy="24.32">MLP -&gt; 512-d item vector</tspan></text>
<rect x="560" y="660" width="375" height="140" rx="10" fill="#ecfdf5" stroke="#047857" stroke-width="2.2"/><text x="747.5" y="694" font-family="Helvetica, Arial, sans-serif" font-size="25" font-weight="700" text-anchor="middle" fill="#111827"><tspan x="747.5" dy="0">FiLM Conditioning</tspan></text><text x="747.5" y="734" font-family="Helvetica, Arial, sans-serif" font-size="19" font-weight="400" text-anchor="middle" fill="#374151"><tspan x="747.5" dy="0">aggregate user vector u</tspan><tspan x="747.5" dy="24.32">gamma, beta = Linear(u)</tspan><tspan x="747.5" dy="24.32">x = x * (1 + gamma) + beta</tspan></text>
<rect x="560" y="890" width="375" height="160" rx="10" fill="#ecfdf5" stroke="#047857" stroke-width="2.2"/><text x="747.5" y="924" font-family="Helvetica, Arial, sans-serif" font-size="25" font-weight="700" text-anchor="middle" fill="#111827"><tspan x="747.5" dy="0">Context Injection</tspan></text><text x="747.5" y="964" font-family="Helvetica, Arial, sans-serif" font-size="19" font-weight="400" text-anchor="middle" fill="#374151"><tspan x="747.5" dy="0">cyclic time sin/cos</tspan><tspan x="747.5" dy="24.32">next-action embedding</tspan><tspan x="747.5" dy="24.32">position embedding</tspan></text>
<rect x="1070" y="215" width="475" height="105" rx="10" fill="#fff7ed" stroke="#c2410c" stroke-width="2.2"/><text x="1307.5" y="249" font-family="Helvetica, Arial, sans-serif" font-size="25" font-weight="700" text-anchor="middle" fill="#111827"><tspan x="1307.5" dy="0">Sequence Input</tspan></text><text x="1307.5" y="289" font-family="Helvetica, Arial, sans-serif" font-size="19" font-weight="400" text-anchor="middle" fill="#374151"><tspan x="1307.5" dy="0">conditioned token embeddings x_t</tspan></text>
<rect x="1070" y="365" width="475" height="120" rx="10" fill="#fff7ed" stroke="#c2410c" stroke-width="2.2"/><text x="1307.5" y="399" font-family="Helvetica, Arial, sans-serif" font-size="25" font-weight="700" text-anchor="middle" fill="#111827"><tspan x="1307.5" dy="0">UVQK Projection</tspan></text><text x="1307.5" y="439" font-family="Helvetica, Arial, sans-serif" font-size="19" font-weight="400" text-anchor="middle" fill="#374151"><tspan x="1307.5" dy="0">single linear -&gt; U, V, Q, K</tspan><tspan x="1307.5" dy="24.32">multi-head split</tspan></text>
<rect x="1070" y="530" width="475" height="145" rx="10" fill="#fffbeb" stroke="#b45309" stroke-width="2.2"/><text x="1307.5" y="564" font-family="Helvetica, Arial, sans-serif" font-size="25" font-weight="700" text-anchor="middle" fill="#111827"><tspan x="1307.5" dy="0">Pointwise Attention</tspan></text><text x="1307.5" y="604" font-family="Helvetica, Arial, sans-serif" font-size="19" font-weight="400" text-anchor="middle" fill="#374151"><tspan x="1307.5" dy="0">A = SiLU(QK^T / sqrt(d) + RAB)</tspan><tspan x="1307.5" dy="24.32">causal + padding mask</tspan><tspan x="1307.5" dy="24.32">no softmax</tspan></text>
<rect x="1070" y="725" width="475" height="120" rx="10" fill="#fefce8" stroke="#a16207" stroke-width="2.2"/><text x="1307.5" y="759" font-family="Helvetica, Arial, sans-serif" font-size="25" font-weight="700" text-anchor="middle" fill="#111827"><tspan x="1307.5" dy="0">Temporal RAB</tspan></text><text x="1307.5" y="799" font-family="Helvetica, Arial, sans-serif" font-size="19" font-weight="400" text-anchor="middle" fill="#374151"><tspan x="1307.5" dy="0">log-bucketed timestamp difference</tspan><tspan x="1307.5" dy="24.32">shared across HSTU layers</tspan></text>
<rect x="1070" y="890" width="475" height="140" rx="10" fill="#fff7ed" stroke="#c2410c" stroke-width="2.2"/><text x="1307.5" y="924" font-family="Helvetica, Arial, sans-serif" font-size="25" font-weight="700" text-anchor="middle" fill="#111827"><tspan x="1307.5" dy="0">Gated Transduction</tspan></text><text x="1307.5" y="964" font-family="Helvetica, Arial, sans-serif" font-size="19" font-weight="400" text-anchor="middle" fill="#374151"><tspan x="1307.5" dy="0">Y = A @ V</tspan><tspan x="1307.5" dy="24.32">LayerNorm(Y) * U</tspan><tspan x="1307.5" dy="24.32">output projection + residual</tspan></text>
<rect x="1685" y="220" width="410" height="120" rx="10" fill="#fdf2f8" stroke="#be185d" stroke-width="2.2"/><text x="1890.0" y="254" font-family="Helvetica, Arial, sans-serif" font-size="25" font-weight="700" text-anchor="middle" fill="#111827"><tspan x="1890.0" dy="0">Query &amp; Positives</tspan></text><text x="1890.0" y="294" font-family="Helvetica, Arial, sans-serif" font-size="19" font-weight="400" text-anchor="middle" fill="#374151"><tspan x="1890.0" dy="0">Q: HSTU output per token</tspan><tspan x="1890.0" dy="24.32">K+: encoded next item</tspan></text>
<rect x="1685" y="385" width="410" height="125" rx="10" fill="#fdf2f8" stroke="#be185d" stroke-width="2.2"/><text x="1890.0" y="419" font-family="Helvetica, Arial, sans-serif" font-size="25" font-weight="700" text-anchor="middle" fill="#111827"><tspan x="1890.0" dy="0">Mixed Negatives</tspan></text><text x="1890.0" y="459" font-family="Helvetica, Arial, sans-serif" font-size="19" font-weight="400" text-anchor="middle" fill="#374151"><tspan x="1890.0" dy="0">in-batch positives</tspan><tspan x="1890.0" dy="24.32">global random negatives</tspan><tspan x="1890.0" dy="24.32">false-negative filtering</tspan></text>
<rect x="1685" y="545" width="410" height="70" rx="10" fill="#fce7f3" stroke="#9d174d" stroke-width="2.2"/><text x="1890.0" y="579" font-family="Helvetica, Arial, sans-serif" font-size="25" font-weight="700" text-anchor="middle" fill="#111827"><tspan x="1890.0" dy="0">Loss: sampled softmax with -log q(i)</tspan></text><text x="1890.0" y="619" font-family="Helvetica, Arial, sans-serif" font-size="19" font-weight="400" text-anchor="middle" fill="#374151"><tspan x="1890.0" dy="0">hard top-k curriculum</tspan></text>
<rect x="1685" y="770" width="410" height="115" rx="10" fill="#eff6ff" stroke="#1d4ed8" stroke-width="2.2"/><text x="1890.0" y="804" font-family="Helvetica, Arial, sans-serif" font-size="25" font-weight="700" text-anchor="middle" fill="#111827"><tspan x="1890.0" dy="0">Candidate Encoding</tspan></text><text x="1890.0" y="844" font-family="Helvetica, Arial, sans-serif" font-size="19" font-weight="400" text-anchor="middle" fill="#374151"><tspan x="1890.0" dy="0">predict_set.jsonl</tspan><tspan x="1890.0" dy="24.32">item tower -&gt; normalized matrix</tspan></text>
<rect x="1685" y="930" width="410" height="115" rx="10" fill="#eff6ff" stroke="#1d4ed8" stroke-width="2.2"/><text x="1890.0" y="964" font-family="Helvetica, Arial, sans-serif" font-size="25" font-weight="700" text-anchor="middle" fill="#111827"><tspan x="1890.0" dy="0">User Query</tspan></text><text x="1890.0" y="1004" font-family="Helvetica, Arial, sans-serif" font-size="19" font-weight="400" text-anchor="middle" fill="#374151"><tspan x="1890.0" dy="0">predict_seq.jsonl history</tspan><tspan x="1890.0" dy="24.32">target action condition</tspan><tspan x="1890.0" dy="24.32">final HSTU state</tspan></text>
<rect x="1685" y="1080" width="410" height="65" rx="10" fill="#dbeafe" stroke="#1e40af" stroke-width="2.2"/><text x="1890.0" y="1114" font-family="Helvetica, Arial, sans-serif" font-size="25" font-weight="700" text-anchor="middle" fill="#111827"><tspan x="1890.0" dy="0">Top-K Retrieval</tspan></text><text x="1890.0" y="1154" font-family="Helvetica, Arial, sans-serif" font-size="19" font-weight="400" text-anchor="middle" fill="#374151"><tspan x="1890.0" dy="0">chunked dot product, mask seen items</tspan></text>
<line x1="255" y1="335" x2="255" y2="370" stroke="#111827" stroke-width="2.6" marker-end="url(#arrow)"/>
<line x1="255" y1="500" x2="255" y2="535" stroke="#111827" stroke-width="2.6" marker-end="url(#arrow)"/>
<line x1="255" y1="665" x2="255" y2="715" stroke="#111827" stroke-width="2.6" marker-end="url(#arrow)"/>
<line x1="255" y1="865" x2="255" y2="920" stroke="#111827" stroke-width="2.6" marker-end="url(#arrow)"/>
<path d="M430,790 C495.0,790 495.0,495 560,495" fill="none" stroke="#111827" stroke-width="2.6" marker-end="url(#arrow)"/>
<path d="M430,790 C495.0,790 495.0,295 560,295" fill="none" stroke="#111827" stroke-width="2.6" marker-end="url(#arrow)"/>
<line x1="748" y1="360" x2="748" y2="660" stroke="#111827" stroke-width="2.6" marker-end="url(#arrow)"/>
<line x1="748" y1="590" x2="748" y2="660" stroke="#111827" stroke-width="2.6" marker-end="url(#arrow)"/>
<line x1="748" y1="800" x2="748" y2="890" stroke="#111827" stroke-width="2.6" marker-end="url(#arrow)"/>
<path d="M935,970 C1002.5,970 1002.5,270 1070,270" fill="none" stroke="#111827" stroke-width="2.6" marker-end="url(#arrow)"/>
<line x1="1308" y1="320" x2="1308" y2="365" stroke="#111827" stroke-width="2.6" marker-end="url(#arrow)"/>
<line x1="1308" y1="485" x2="1308" y2="530" stroke="#111827" stroke-width="2.6" marker-end="url(#arrow)"/>
<path d="M1308,725 C1308.0,725 1308.0,675 1308,675" fill="none" stroke="#111827" stroke-width="2.6" marker-end="url(#arrow)"/>
<line x1="1308" y1="675" x2="1308" y2="890" stroke="#111827" stroke-width="2.6" marker-end="url(#arrow)"/>
<path d="M1545,960 C1615.0,960 1615.0,280 1685,280" fill="none" stroke="#111827" stroke-width="2.6" marker-end="url(#arrow)"/>
<path d="M430,995 C1057.5,995 1057.5,280 1685,280" fill="none" stroke="#111827" stroke-width="2.6" marker-end="url(#arrow)"/>
<path d="M430,995 C1057.5,995 1057.5,445 1685,445" fill="none" stroke="#111827" stroke-width="2.6" marker-end="url(#arrow)"/>
<line x1="1890" y1="340" x2="1890" y2="385" stroke="#111827" stroke-width="2.6" marker-end="url(#arrow)"/>
<line x1="1890" y1="510" x2="1890" y2="545" stroke="#111827" stroke-width="2.6" marker-end="url(#arrow)"/>
<path d="M1545,960 C1615.0,960 1615.0,985 1685,985" fill="none" stroke="#111827" stroke-width="2.6" marker-end="url(#arrow)"/>
<line x1="1890" y1="885" x2="1890" y2="930" stroke="#111827" stroke-width="2.6" marker-end="url(#arrow)"/>
<line x1="1890" y1="1045" x2="1890" y2="1080" stroke="#111827" stroke-width="2.6" marker-end="url(#arrow)"/>
<path d="M1890,830 C1890.0,830 1890.0,1080 1890,1080" fill="none" stroke="#111827" stroke-width="2.6" marker-end="url(#arrow)"/>
<rect x="120" y="1210" width="1960" height="90" rx="12" fill="#f8fafc" stroke="#cbd5e1" stroke-width="2"/>
<text x="1100" y="1250" font-family="Helvetica, Arial, sans-serif" font-size="24" font-weight="700" text-anchor="middle" fill="#111827">Training loss:  -log exp(sim(Q,K+)/tau - log q(i+)) / [ exp(pos) + sum_j exp(sim(Q,Nj)/tau - log q(ij)) ]</text>
<text x="1100" y="1282" font-family="Helvetica, Arial, sans-serif" font-size="20" font-weight="500" text-anchor="middle" fill="#475569">Curriculum gradually keeps harder top-k negatives and reduces the global-negative ratio.</text>
</svg>